<svg width="73" height="26" viewBox="0 0 73 26" fill="none" xmlns="http://www.w3.org/2000/svg">
<path d="M17.2088 20V18.1492H10.8069V5.85635H8.65912V20H17.2088ZM31.1473 12.9282C31.1473 8.4047 28.4332 5.66298 24.7729 5.66298C21.092 5.66298 18.3986 8.4047 18.3986 12.9282C18.3986 17.4448 21.092 20.1934 24.7729 20.1934C28.4332 20.1934 31.1473 17.4517 31.1473 12.9282ZM29.0133 12.9282C29.0133 16.3674 27.2039 18.232 24.7729 18.232C22.342 18.232 20.5326 16.3674 20.5326 12.9282C20.5326 9.48895 22.342 7.62431 24.7729 7.62431C27.2039 7.62431 29.0133 9.48895 29.0133 12.9282ZM39.8529 14.5304H43.3405C43.2921 16.7956 41.7935 18.232 39.5421 18.232C37.049 18.232 35.2396 16.3536 35.2396 12.9213C35.2396 9.50276 37.0628 7.62431 39.4523 7.62431C41.317 7.62431 42.5946 8.66022 43.1195 10.3246H45.3294C44.846 7.56906 42.491 5.66298 39.4385 5.66298C35.7714 5.66298 33.1057 8.41851 33.1057 12.9351C33.1057 17.4102 35.6954 20.1934 39.5352 20.1934C42.9675 20.1934 45.4261 17.942 45.4261 14.3646V12.7624H39.8529V14.5304ZM47.8974 5.85635V20H50.0452V5.85635H47.8974ZM62.2125 5.85635V16.2086H62.0813L54.9128 5.85635H52.9169V20H55.0647V9.66851H55.1959L62.3644 20H64.3396V5.85635H62.2125Z" fill="#080808"/>
</svg>
