<svg width="800" height="141" viewBox="0 0 800 141" fill="none" xmlns="http://www.w3.org/2000/svg">
<path d="M19.5656 137.374L0 3.37939H27.8615L42.317 119.77H46.1197L64.8382 3.37939H113.333L132.052 119.77H135.882L150.338 3.37939H178.199L158.661 137.374H110.166L91.024 18.3137H87.2029L68.0608 137.374H19.5656Z" fill="black"/>
<path d="M198.649 137.374V3.37939H294.405V26.3978H226.722V58.3658H288.411V81.3842H226.722V114.531H295.639V137.549L198.649 137.374Z" fill="black"/>
<path d="M368.746 140.753C357.144 140.753 346.906 138.884 338.03 135.146C329.154 131.408 322.205 126.058 317.184 119.098C312.176 112.137 309.671 103.758 309.671 93.9616V88.5568H337.597V93.9616C337.597 102.082 340.39 108.175 345.976 112.238C351.562 116.302 359.152 118.33 368.746 118.324C378.481 118.324 385.749 116.584 390.549 113.104C395.349 109.623 397.746 105.176 397.74 99.7622C397.807 98.0857 397.528 96.4134 396.919 94.8498C396.311 93.2861 395.387 91.8648 394.204 90.6745C391.841 88.3666 388.403 86.4668 383.892 84.9752C378.5 83.2696 373.012 81.883 367.457 80.8226L362.512 79.8559C353.425 78.158 344.537 75.5324 335.986 72.0204C328.62 68.8654 322.964 64.7097 319.017 59.5536C315.07 54.3975 313.109 47.6946 313.133 39.4448C313.133 31.195 315.318 24.136 319.689 18.2678C324.059 12.3997 330.216 7.88805 338.159 4.733C346.108 1.5718 355.453 -0.00878906 366.195 -0.00878906C376.937 -0.00878906 386.497 1.63627 394.876 4.92637C403.243 8.21647 409.829 13.1271 414.635 19.6581C419.441 26.1892 421.823 34.3316 421.78 44.0853V49.8859H393.873V44.0853C393.873 38.9292 392.765 34.7736 390.549 31.6185C388.178 28.3474 384.832 25.9108 380.991 24.6577C376.213 23.0763 371.2 22.3227 366.168 22.4295C357.574 22.4295 351.236 23.8813 347.154 26.7846C345.211 28.0855 343.629 29.8585 342.559 31.9376C341.488 34.0167 340.962 36.3337 341.031 38.6713C340.946 41.7633 341.976 44.7829 343.932 47.179C346.308 49.8018 349.298 51.7947 352.633 52.9796C357.438 54.7887 362.4 56.148 367.457 57.04L372.392 57.9608C381.972 59.6901 391.361 62.345 400.428 65.8883C408.377 69.1415 414.574 73.4076 419.018 78.6865C423.462 83.9654 425.684 90.7175 425.684 98.9427C425.817 106.767 423.36 114.416 418.696 120.7C414.049 126.955 407.463 131.865 398.937 135.432C390.411 138.998 380.347 140.772 368.746 140.753Z" fill="black"/>
<path d="M436.3 137.374L475.441 3.37939H524.359L563.491 137.374H534.561L526.486 107.911H473.341L465.257 137.374H436.3ZM479.906 84.5423H519.885L501.81 19.2713H497.98L479.906 84.5423Z" fill="black"/>
<path d="M599.224 137.374L561.364 3.37939H590.275L621.755 121.105H624.738L656.209 3.37939H685.111L647.25 137.374H599.224Z" fill="black"/>
<path d="M703.01 137.374V3.37939H798.766V26.3978H731.138V58.3658H792.827V81.3842H731.138V114.531H800.046V137.549L703.01 137.374Z" fill="black"/>
</svg>
