<svg width="153" height="40" viewBox="0 0 153 40" fill="none" xmlns="http://www.w3.org/2000/svg">
<path d="M7.6182 28.1699V20.7925H16.1968V28.1699H18.8234V11.2316H16.1968V18.5842H7.6182V11.2316H5V28.1699H7.6182Z" fill="#080808"/>
<path d="M22.3329 11.2316V28.1699H24.9511V11.2316H22.3329Z" fill="#080808"/>
<path d="M28.6623 26.5323L27.3911 33H29.4116L31.3226 26.5323H28.6623Z" fill="#080808"/>
<path d="M46.7035 28.1699L50.3235 15.5158H50.4582L54.0782 28.1699H56.7217L61.5035 11.2316H58.7421L55.3915 24.3323H55.24L51.7547 11.2316H49.027L45.5417 24.3241H45.3818L42.0311 11.2316H39.2698L44.0516 28.1699H46.7035Z" fill="#080808"/>
<path d="M74.5605 28.1699V25.9534H66.2597V20.7925H73.9039V18.5842H66.2597V13.4481H74.4679V11.2316H63.6415V28.1699H74.5605Z" fill="#080808"/>
<path d="M89.5704 15.6895C89.5031 12.9684 87.0533 11 83.5511 11C80.0742 11 77.4223 12.9353 77.4223 15.8714C77.4223 18.2368 79.1397 19.6098 81.9179 20.3541L83.9468 20.8917C85.7905 21.3714 87.2048 21.9669 87.2132 23.4556C87.2048 25.1015 85.6137 26.1932 83.408 26.1932C81.4044 26.1932 79.7375 25.3165 79.5859 23.4805H76.9593C77.1277 26.5571 79.5523 28.4511 83.4164 28.4511C87.4826 28.4511 89.8062 26.3586 89.8062 23.4805C89.8062 20.4368 87.0533 19.2459 84.8476 18.7165L83.1723 18.2865C81.8084 17.9556 80.0321 17.3271 80.0405 15.7226C80.0405 14.2835 81.3791 13.2248 83.4922 13.2248C85.4622 13.2248 86.8681 14.1263 87.0364 15.6895H89.5704Z" fill="#080808"/>
<path d="M106.601 28.1699L100.405 11.2316H97.3655L91.1693 28.1699H93.9475L95.5218 23.6955H102.24L103.814 28.1699H106.601ZM98.8135 14.3248H98.9482L101.482 21.5368H96.2794L98.8135 14.3248Z" fill="#080808"/>
<path d="M105.669 11.2316L111.865 28.1699H114.904L121.1 11.2316H118.272L113.473 25.0105H113.288L108.506 11.2316H105.669Z" fill="#080808"/>
<path d="M121.806 21.4335C121.806 20.4993 121.971 19.6281 122.3 18.8197C122.647 17.9934 123.114 17.2748 123.699 16.664C124.302 16.0533 124.997 15.5772 125.783 15.2359C126.57 14.8766 127.411 14.697 128.307 14.697C129.239 14.697 130.117 14.9215 130.94 15.3706C131.763 15.8018 132.503 16.3407 133.161 16.9874C133.235 17.0592 133.271 17.1491 133.271 17.2568C133.271 17.3826 133.225 17.4994 133.134 17.6071C133.061 17.697 132.951 17.7419 132.805 17.7419H125.399C125.308 17.8317 125.216 17.9215 125.125 18.0113C125.034 18.0832 124.933 18.164 124.823 18.2538C124.092 19.0083 123.534 19.8257 123.15 20.7059C122.785 21.5682 122.602 22.4035 122.602 23.2119C122.602 24.4873 122.995 25.4753 123.781 26.1759C124.586 26.8586 125.619 27.1999 126.88 27.1999C127.868 27.1999 128.755 27.0292 129.541 26.6879C130.327 26.3286 131.04 25.8616 131.68 25.2867C132.32 24.6939 132.887 24.0292 133.381 23.2927C133.893 22.5562 134.35 21.8017 134.752 21.0293V21.4335C134.752 22.3676 134.579 23.2478 134.231 24.0742C133.902 24.8825 133.445 25.5921 132.86 26.2029C132.275 26.8137 131.589 27.2987 130.803 27.658C130.016 27.9993 129.184 28.1699 128.307 28.1699C127.411 28.1699 126.57 27.9993 125.783 27.658C124.997 27.2987 124.302 26.8137 123.699 26.2029C123.114 25.5921 122.647 24.8825 122.3 24.0742C121.971 23.2478 121.806 22.3676 121.806 21.4335ZM125.564 17.5802H132.558C132.723 17.5802 132.841 17.5083 132.915 17.3646C132.988 17.203 132.96 17.0592 132.832 16.9335C132.412 16.4305 131.955 16.0802 131.461 15.8826C130.985 15.685 130.51 15.5862 130.035 15.5862C129.45 15.5862 128.892 15.694 128.362 15.9096C127.831 16.1072 127.356 16.3317 126.935 16.5832C126.442 16.8706 125.984 17.203 125.564 17.5802Z" fill="#080808"/>
<path d="M136.136 28.1699L136.246 28.0352H136.987C137.243 28.0352 137.416 27.9274 137.508 27.7118C137.617 27.4963 137.672 27.2089 137.672 26.8496V15.7209C137.654 15.3976 137.581 15.0563 137.453 14.697L139.345 16.1251V16.8527C139.93 16.188 140.625 15.667 141.43 15.2898C142.253 14.8946 143.13 14.697 144.063 14.697C144.575 14.697 145.114 14.7868 145.681 14.9665C146.266 15.1281 146.806 15.3527 147.299 15.6401C147.793 15.9096 148.195 16.2239 148.506 16.5832C148.835 16.9425 149 17.3107 149 17.688C149 17.9574 148.936 18.2089 148.808 18.4425C148.698 18.676 148.534 18.7928 148.314 18.7928C147.949 18.7928 147.674 18.676 147.491 18.4425C147.327 18.191 147.181 17.9125 147.053 17.6071C146.925 17.2838 146.815 16.9604 146.723 16.6371C146.65 16.3137 146.595 16.1072 146.559 16.0173C146.413 15.712 146.111 15.4425 145.654 15.209C145.197 14.9575 144.666 14.8317 144.063 14.8317C143.569 14.8317 143.048 14.9305 142.5 15.1281C141.969 15.3257 141.476 15.6581 141.018 16.1251C140.58 16.5742 140.205 17.176 139.894 17.9305C139.583 18.667 139.4 19.5922 139.345 20.7059V28.1699H136.136Z" fill="#080808"/>
</svg>
